<?xml version="1.0" encoding="utf-8"?>
<!-- Generator: Adobe Illustrator 19.0.0, SVG Export Plug-In . SVG Version: 6.00 Build 0)  -->
<svg version="1.1" id="Layer_1" xmlns="http://www.w3.org/2000/svg" xmlns:xlink="http://www.w3.org/1999/xlink" x="0px" y="0px"
	 width="400" height="124" viewBox="-75 -23.159 400 123.481" enable-background="new -75 -23.159 400 123.481" xml:space="preserve">
<g>
	<path fill="#3F3B3C" d="M59.925-16.615v48.288c0,10.646-9.363,18.731-21.733,18.731c-12.366,0-21.734-8.084-21.734-18.731V-5.266
		c0-6.243,5.034-11.349,11.312-11.349h0.792v48.2c0,5.723,5.125,9.237,10.07,9.237c4.771,0,9.902-3.255,9.902-9.237V-5.881
		c0-5.892,4.855-10.734,10.771-10.734H59.925z M83.771,0.446c16.52,0,19.173,9.24,19.173,14.78v34.477h-0.528
		c-6.098,0-11.312-5.102-11.312-11.173V15.405c0-3.256-1.327-7.133-7.773-7.133c-3,0-4.771,0.355-6.713,1.061v40.371H64.776V4.057
		C69.823,1.854,77.942,0.446,83.771,0.446 M114.032-16.615c3.533,0,6.357,2.639,6.357,5.891c0,3.169-2.824,5.719-6.357,5.719
		c-3.534,0-6.448-2.548-6.448-5.719C107.582-13.976,110.498-16.615,114.032-16.615 M119.859,0.446L119.859,0.446V38.62
		c0,6.062-4.946,11.084-11.127,11.084h-0.538V0.446H119.859z M153.497-17.583c5.569,0,10.777,1.232,15.105,3.869v11.612
		c-2.645-3.431-6.445-5.802-12.539-5.802c-12.022,0-19.438,11.779-19.438,24.009c0,11.53,7.775,24.102,19.438,24.102
		c5.122,0,9.805-1.494,12.539-5.193v11.432c-3.439,2.555-8.83,3.961-15.191,3.961c-19.086,0-29.153-17.417-29.153-34.213
		C124.259-0.339,134.327-17.583,153.497-17.583 M189.522,0.446c1.948,0,4.423,0.178,6.631,0.533v9.405
		c-4.063-2.898-9.456-1.928-11.837-0.699v28.934c0,6.063-5.031,11.084-11.13,11.084h-0.62V4.235
		C177.163,2.035,181.844,0.446,189.522,0.446 M237.141,25.603l-29.419,4.048c0.969,8.003,5.041,12.228,12.459,12.228
		c8.212,0,12.369-2.639,15.378-4.749v9.756c-3.009,1.594-8.572,3.519-16.525,3.519c-14.4,0-22.97-9.666-22.97-25.153
		c0-15.035,7.952-24.803,21.02-24.803c12.903,0,20.056,8.533,20.056,23.311V25.603z M226.894,18.916L226.894,18.916
		c-0.352-9.763-6.447-10.811-9.719-10.811h-0.438c-6.625,0.168-9.716,4.838-9.716,13.541L226.894,18.916z M279.566-16.615v65.7
		c-2.827,0.62-12.098,1.319-15.988,1.319h-0.803c-14.394-0.17-22.256-8.439-22.256-23.306c0-15.035,8.212-24.714,20.939-24.714
		c2.472,0,4.589,0.269,6.448,0.701v-8.528c0-6.155,4.95-11.171,11.134-11.171H279.566z M267.991,9.947L267.991,9.947
		c-1.231-0.352-2.559-0.528-4.061-0.528c-9.72,0-11.755,9.324-11.755,17.061c0,10.827,3.631,16.187,10.958,16.187
		c1.236,0,3.97-0.266,4.858-0.434V9.947L267.991,9.947z M290.912-16.615c3.534,0,6.366,2.639,6.366,5.891
		c0,3.169-2.831,5.719-6.366,5.719s-6.45-2.548-6.45-5.719C284.463-13.976,287.378-16.615,290.912-16.615 M296.744,0.446
		L296.744,0.446V38.62c0,6.062-4.95,11.084-11.133,11.084h-0.523V0.446H296.744z M317.4-16.615V0.447h7.6v9.413h-7.598v26.127
		c0,3.163,1.061,4.13,4.508,4.13c0.881,0,2.208-0.264,3.091-0.616v9.764c-0.53,0.172-2.825,1.141-5.912,1.141
		c-8.663,0-13.434-4.222-13.434-11.874V9.858h-5.13V0.446h5.13v-5.979c0-6.066,4.944-11.084,11.047-11.084h0.7V-16.615z"/>
	<g>
		<path fill="#EC2127" d="M32.901,90.472c-0.976,0.511-2.509,0.836-4.461,0.836c-6.133,0-10.501-4.923-10.501-15.564
			c0-12.359,6.133-16.306,11.058-16.306c1.904,0,3.251,0.369,3.902,0.789l-0.791,3.02c-0.744-0.325-1.533-0.65-3.16-0.65
			c-3.345,0-7.248,3.252-7.248,12.822c0,9.572,3.531,12.731,7.341,12.731c1.348,0,2.555-0.325,3.299-0.699L32.901,90.472z"/>
		<path fill="#EC2127" d="M49.35,79.787c0,8.689-4.041,11.617-7.48,11.617c-4.041,0-7.294-3.672-7.294-11.569
			c0-8.225,3.67-11.661,7.527-11.661C46.098,68.172,49.35,71.935,49.35,79.787z M38.154,79.787c0,3.717,0.649,8.781,3.902,8.781
			c3.067,0,3.67-5.298,3.67-8.781c0-3.436-0.603-8.734-3.763-8.734C38.757,71.052,38.154,76.347,38.154,79.787z"/>
		<path fill="#EC2127" d="M52.605,74.351c0-2.648-0.139-3.997-0.185-5.806h3.113l0.186,2.694h0.092
			c0.977-1.811,2.788-3.066,5.157-3.066c3.112,0,5.435,2.322,5.435,7.759v15.1h-3.577V76.535c0-2.647-0.511-5.344-3.112-5.344
			c-1.486,0-2.926,1.255-3.391,3.672c-0.093,0.556-0.14,1.253-0.14,1.997v14.17h-3.577V74.351z"/>
		<path fill="#EC2127" d="M70.078,87.313c0.791,0.511,2.184,1.163,3.624,1.163c2.043,0,3.299-1.253,3.299-3.252
			c0-1.719-0.603-2.88-2.88-4.414c-2.928-1.905-4.506-3.809-4.506-6.412c0-3.623,2.694-6.225,6.18-6.225
			c1.766,0,3.112,0.603,4.041,1.162l-0.976,2.695c-0.837-0.558-1.812-0.977-2.973-0.977c-1.952,0-2.928,1.394-2.928,2.834
			c0,1.531,0.559,2.367,2.787,3.902c2.602,1.673,4.647,3.716,4.647,6.83c0,4.506-3.067,6.691-6.736,6.691
			c-1.672,0-3.485-0.509-4.461-1.3L70.078,87.313z"/>
		<path fill="#EC2127" d="M96.841,84.898c0,2.509,0.139,4.461,0.186,6.133h-3.112l-0.234-2.367h-0.092
			c-0.698,1.112-2.416,2.741-4.832,2.741c-3.949,0-5.484-3.069-5.484-8.642V68.544h3.578v13.705c0,3.531,0.558,6.133,3.02,6.133
			c2.091,0,3.02-1.952,3.205-2.972c0.139-0.603,0.186-1.302,0.186-2.044V68.544h3.577v16.353H96.841z"/>
		<path fill="#EC2127" d="M101.12,74.351c0-2.648-0.14-3.997-0.186-5.806h3.113l0.186,2.788h0.093
			c0.976-1.814,2.695-3.161,5.064-3.161c2.091,0,3.855,1.023,4.692,3.436h0.093c0.603-1.114,1.394-1.997,2.23-2.555
			c0.882-0.605,1.951-0.883,3.112-0.883c3.019,0,5.39,2.231,5.39,7.944v14.914h-3.533v-14.08c0-2.925-0.419-5.761-3.16-5.761
			c-1.486,0-2.787,1.255-3.299,3.345c-0.093,0.606-0.14,1.302-0.14,2.045v14.448h-3.531V76.297c0-2.508-0.466-5.111-3.113-5.111
			c-1.44,0-2.927,1.255-3.345,3.627c-0.093,0.603-0.14,1.253-0.14,1.952v14.262h-3.53V74.351H101.12z"/>
		<path fill="#EC2127" d="M131.697,80.112c0.045,6.877,2.744,8.364,5.344,8.364c1.534,0,2.833-0.37,3.719-0.881l0.556,2.647
			c-1.253,0.697-3.159,1.067-4.925,1.067c-5.391,0-8.178-4.412-8.178-11.289c0-7.295,3.069-11.847,7.575-11.847
			c4.6,0,6.409,4.831,6.409,9.942c0,0.836,0,1.439-0.044,1.997H131.697z M138.759,77.466c0.094-4.508-1.627-6.505-3.345-6.505
			c-2.324,0-3.531,3.436-3.672,6.505H138.759z"/>
		<path fill="#EC2127" d="M145.267,74.351c0-1.905-0.141-4.134-0.188-5.806h3.208l0.186,3.528h0.092
			c0.744-2.134,2.648-3.9,4.741-3.9c0.278,0,0.508,0.044,0.744,0.044v3.672c-0.234-0.045-0.466-0.045-0.744-0.045
			c-2.278,0-3.95,2.092-4.322,4.692c-0.094,0.603-0.141,1.302-0.141,2.044V91.03h-3.575v-16.68H145.267z"/>
		<path fill="#EC2127" d="M162.925,59.716h11.941v3.113h-8.362v10.966h7.806v3.019h-7.806v14.219h-3.578V59.716z"/>
		<path fill="#EC2127" d="M181.791,62.738c0.047,1.394-0.837,2.32-2.184,2.32c-1.159,0-2.044-0.927-2.044-2.32
			c0-1.394,0.928-2.325,2.092-2.325C180.953,60.413,181.791,61.341,181.791,62.738z M177.933,91.03V68.544h3.577V91.03H177.933z"/>
		<path fill="#EC2127" d="M185.739,74.351c0-2.648-0.141-3.997-0.183-5.806h3.111l0.184,2.694h0.094
			c0.975-1.811,2.788-3.066,5.158-3.066c3.111,0,5.436,2.322,5.436,7.759v15.1h-3.576V76.535c0-2.647-0.512-5.344-3.112-5.344
			c-1.488,0-2.928,1.255-3.394,3.672c-0.091,0.556-0.138,1.253-0.138,1.997v14.17h-3.578v-16.68H185.739z"/>
		<path fill="#EC2127" d="M212.694,91.03l-0.234-2.367h-0.137c-0.975,1.717-2.556,2.741-4.459,2.741
			c-3.022,0-5.344-2.558-5.344-6.412c0-5.622,4.506-8.131,9.569-8.178v-0.697c0-3.019-0.742-5.109-3.575-5.109
			c-1.394,0-2.65,0.466-3.719,1.162l-0.788-2.509c0.928-0.697,3.019-1.486,5.25-1.486c4.506,0,6.456,2.973,6.456,8.036v9.709
			c0,1.719,0,3.67,0.231,5.111H212.694z M212.181,79.413c-1.859,0-6.178,0.328-6.178,5.206c0,2.925,1.487,3.994,2.74,3.994
			c1.578,0,2.928-1.162,3.344-3.391c0.095-0.419,0.095-0.884,0.095-1.255v-4.555H212.181z"/>
		<path fill="#EC2127" d="M219.991,74.351c0-2.648-0.14-3.997-0.187-5.806h3.112l0.188,2.694h0.091
			c0.978-1.811,2.788-3.066,5.159-3.066c3.112,0,5.434,2.322,5.434,7.759v15.1h-3.578V76.535c0-2.647-0.509-5.344-3.113-5.344
			c-1.484,0-2.925,1.255-3.391,3.672c-0.094,0.556-0.141,1.253-0.141,1.997v14.17h-3.573v-16.68H219.991z"/>
		<path fill="#EC2127" d="M249.031,90.472c-0.791,0.466-2.137,0.836-3.716,0.836c-4.925,0-8.225-3.948-8.225-11.383
			c0-6.456,3.252-11.706,8.875-11.706c1.209,0,2.508,0.325,3.159,0.697l-0.697,2.928c-0.466-0.234-1.394-0.605-2.558-0.605
			c-3.576,0-5.203,4.275-5.203,8.689c0,5.248,1.997,8.409,5.298,8.409c0.973,0,1.766-0.233,2.603-0.603L249.031,90.472z"/>
		<path fill="#EC2127" d="M255.211,62.738c0.047,1.394-0.836,2.32-2.183,2.32c-1.161,0-2.044-0.927-2.044-2.32
			c0-1.394,0.928-2.325,2.091-2.325C254.375,60.413,255.211,61.341,255.211,62.738z M251.356,91.03V68.544h3.576V91.03H251.356z"/>
		<path fill="#EC2127" d="M259.166,74.351c0-2.648-0.141-3.997-0.188-5.806h3.112l0.186,2.694h0.092
			c0.976-1.811,2.788-3.066,5.159-3.066c3.112,0,5.434,2.322,5.434,7.759v15.1h-3.578V76.535c0-2.647-0.509-5.344-3.112-5.344
			c-1.484,0-2.925,1.255-3.391,3.672c-0.094,0.556-0.141,1.253-0.141,1.997v14.17h-3.575V74.351L259.166,74.351z"/>
		<path fill="#EC2127" d="M290.994,68.544c-0.047,1.578-0.188,3.575-0.188,7.014v12.589c0,5.902-0.744,8.131-2.228,9.759
			c-1.347,1.533-3.484,2.416-5.994,2.416c-1.906,0-3.762-0.464-4.925-1.116l0.834-2.788c0.884,0.466,2.37,0.978,4.183,0.978
			c2.833,0,4.597-1.767,4.597-6.878v-2.276h-0.092c-0.789,1.767-2.416,2.741-4.32,2.741c-3.997,0-6.597-4.505-6.597-11.102
			c0-8.272,3.764-11.708,7.063-11.708c2.416,0,3.531,1.58,4.18,2.927h0.092l0.188-2.556H290.994L290.994,68.544z M287.273,76.302
			c0-0.558-0.042-1.161-0.183-1.627c-0.42-1.534-1.211-3.437-3.253-3.437c-2.6,0-3.994,3.484-3.994,8.456
			c0,5.761,1.809,8.363,3.994,8.363c1.069,0,2.463-0.509,3.206-3.206c0.188-0.697,0.231-1.394,0.231-2.044v-6.505H287.273z"/>
	</g>
	<g>
		<path fill="#E51E26" d="M3.101,15.889c0,21.572-17.485,39.055-39.053,39.055C-57.515,54.944-75,37.461-75,15.889
			c0-21.566,17.485-39.048,39.05-39.048C-14.382-23.159,3.101-5.678,3.101,15.889"/>
		<path fill="#FFFFFF" d="M-38.426,5.046c0,0,4.516-5.837,4.939-6.553c0.434-0.717,0.604-1.291-0.619-2.056
			c-1.224-0.762-5.31-3.16-6.125-3.781c-0.809-0.622-0.667-2.916,1.727-3.395c2.389-0.476,23.15-2.2,31.234-1.34
			c8.086,0.864,6.985,3.159,7.03,5.023c0.048,1.866-3.252,4.545-7.653,8.513c0,0-7.27,6.744-12.577,11.384
			c-5.316,4.64-22.296,18.942-25.597,21.53c-3.299,2.582-16.096,12.101-16.928,12.725c-0.83,0.628-3.152,2.495-4.414,1.189
			c-1.266-1.303,0-2.75,0.641-3.642C-66.125,43.757-40.337,7.344-38.426,5.046"/>
		<path fill="#E51E26" d="M-0.733-9.864c0.331,0.797,0.627,2.31,0.498,2.808C-0.704-5.252-3.487-2.511-7.89,1.457
			c0,0-7.267,6.744-12.579,11.384c-5.31,4.64-22.293,18.942-25.594,21.53c-3.301,2.582-16.096,12.101-16.928,12.725
			c-0.632,0.48-3.452,0.881-4.691,0.852c0.4,0.569,1.112,1.2,1.854,1.919c1.301,1.266,3.586-0.566,4.416-1.191
			c0.83-0.622,13.627-10.143,16.93-12.729c3.301-2.582,20.28-16.886,25.59-21.527C-13.58,9.783-6.31,3.038-6.31,3.038
			c4.4-3.971,6.803-6.133,7.273-7.938C1.174-5.728,1.467-8.342-0.733-9.864"/>
	</g>
</g>
</svg>
